<?xml version="1.0" encoding="utf-8"?>
<!-- Generator: Adobe Illustrator 16.0.0, SVG Export Plug-In . SVG Version: 6.00 Build 0)  -->
<!DOCTYPE svg PUBLIC "-//W3C//DTD SVG 1.1//EN" "http://www.w3.org/Graphics/SVG/1.1/DTD/svg11.dtd">
<svg version="1.1" id="Layer_1" xmlns="http://www.w3.org/2000/svg" xmlns:xlink="http://www.w3.org/1999/xlink" x="0px" y="0px"
	 width="100px" height="100px" viewBox="0 0 100 100" enable-background="new 0 0 100 100" xml:space="preserve">
<g>
	<path d="M48.864,16.562c-9.036,0-17.532,3.52-23.921,9.909c-6.39,6.39-9.908,14.884-9.908,23.92s3.519,17.53,9.908,23.92
		c6.389,6.39,14.884,9.908,23.92,9.908c9.035,0,17.531-3.519,23.92-9.908c13.189-13.19,13.189-34.651,0-47.842
		C66.395,20.08,57.899,16.562,48.864,16.562z M63.119,24.178l-7.496,7.498c-2.079-0.748-4.286-1.16-6.561-1.16
		c-2.239,0-4.411,0.399-6.461,1.125l-7.648-7.649c4.237-2.239,8.982-3.43,13.912-3.43C53.928,20.562,58.795,21.819,63.119,24.178z
		 M38.211,60.709c-5.982-5.982-5.982-15.717,0-21.699c2.899-2.898,6.753-4.494,10.851-4.494s7.952,1.596,10.85,4.494
		c5.982,5.982,5.982,15.718,0,21.701c-2.898,2.897-6.751,4.494-10.849,4.494C44.964,65.205,41.11,63.608,38.211,60.709z
		 M23.313,34.98l7.768,7.768c-1.723,4.375-1.779,9.248-0.195,13.663l-8.234,8.235c-2.359-4.324-3.617-9.192-3.617-14.256
		C19.035,44.871,20.526,39.583,23.313,34.98z M33.787,76.137l8.258-8.256c2.209,0.859,4.576,1.324,7.018,1.324
		c2.478,0,4.88-0.475,7.117-1.359l8.094,8.095c-4.602,2.787-9.891,4.278-15.41,4.278C43.477,80.219,38.312,78.796,33.787,76.137z
		 M75.255,64.294l-7.982-7.982c1.535-4.356,1.478-9.147-0.195-13.464l7.528-7.528C79.807,44.207,80.023,55.229,75.255,64.294z"/>
</g>
</svg>
